<svg id="Layer_1" data-name="Layer 1" xmlns="http://www.w3.org/2000/svg" viewBox="0 0 291.21 134.09"><defs><style>.cls-1,.cls-2{fill:#fff;}.cls-1,.cls-15,.cls-16,.cls-17,.cls-2,.cls-21,.cls-23,.cls-30,.cls-9{stroke:#231f20;}.cls-1,.cls-15,.cls-16,.cls-17,.cls-2,.cls-21,.cls-23,.cls-3,.cls-30,.cls-6,.cls-7,.cls-8,.cls-9{stroke-miterlimit:10;}.cls-1,.cls-2,.cls-23{stroke-width:0.5px;}.cls-1{stroke-dasharray:1.69 0.85;}.cls-18,.cls-21,.cls-23,.cls-29,.cls-3,.cls-31,.cls-6,.cls-7,.cls-8{fill:none;}.cls-3{stroke:#d46127;stroke-width:0.87px;}.cls-4{fill:#d46127;}.cls-5{fill:#bcbec0;}.cls-6,.cls-7{stroke:#ba8f2e;}.cls-6,.cls-8{stroke-width:0.32px;}.cls-7{stroke-width:0.4px;}.cls-29,.cls-8{stroke:#a07d2d;}.cls-11,.cls-15,.cls-9{fill:#d3638d;}.cls-15,.cls-16,.cls-17,.cls-9{stroke-width:0.1px;}.cls-10{fill:#9f9fa0;}.cls-12,.cls-30{fill:#cfd2d3;}.cls-13{fill:#92c251;}.cls-14{fill:#939598;}.cls-15,.cls-26{opacity:0.8;}.cls-16{fill:#8fc14f;}.cls-17,.cls-22{fill:#6d6e71;}.cls-18,.cls-31{stroke:#010101;}.cls-18,.cls-29,.cls-31{stroke-linejoin:round;}.cls-18{stroke-width:0.41px;}.cls-19{fill:#010101;}.cls-20,.cls-28{font-size:7px;font-family:ArialMT, Arial;}.cls-20,.cls-24{fill:#231f20;}.cls-21{stroke-width:0.75px;}.cls-25,.cls-28{fill:#a07d2d;}.cls-26{fill:#d2507f;}.cls-27{fill:#7bc143;}.cls-29{stroke-linecap:square;stroke-width:1.05px;}.cls-30{stroke-width:0.09px;}.cls-31{stroke-width:0.44px;}</style></defs><rect class="cls-1" x="161.88" y="0.25" width="86.11" height="52.53"/><rect class="cls-1" x="148.06" y="11.55" width="86.11" height="52.53"/><rect class="cls-1" x="134.24" y="22.84" width="86.11" height="52.53"/><rect class="cls-2" x="121.4" y="34.29" width="84.13" height="52.22"/><polyline class="cls-3" points="168.32 38.53 182.98 48.66 193.78 48.66 199.73 48.66"/><polygon class="cls-4" points="198 50.13 199.47 48.66 198 47.19 199.25 47.19 200.72 48.66 199.25 50.13 198 50.13"/><path class="cls-5" d="M145.62,55.43c-2.1-1.22-3.37-2.79-3.37-4.51,0-3.91,6.61-7.08,14.75-7.08s14.76,3.17,14.76,7.08c0,1.69-1.23,3.24-3.28,4.46v0c.18.1.35.21.52.32,2,1.34,3.26,3,3.26,4.9,0,4.31-6.61,7.81-14.75,7.81A22.57,22.57,0,0,1,146.9,66l.06,0c-.36,0-.72,0-1.1,0-4.18,0-7.56-2.39-7.56-5.35a6.6,6.6,0,0,1,6.54-6.57" transform="translate(-14.95 -6.49)"/><line class="cls-6" x1="144.28" y1="50.61" x2="144.28" y2="51.87"/><line class="cls-6" x1="143.42" y1="50.61" x2="143.42" y2="51.87"/><line class="cls-6" x1="142.56" y1="50.61" x2="142.56" y2="51.87"/><line class="cls-6" x1="140.84" y1="50.61" x2="140.84" y2="51.87"/><line class="cls-6" x1="139.98" y1="50.61" x2="139.98" y2="51.87"/><line class="cls-6" x1="139.12" y1="50.61" x2="139.12" y2="51.87"/><line class="cls-6" x1="138.26" y1="50.61" x2="138.26" y2="51.87"/><line class="cls-6" x1="137.4" y1="50.61" x2="137.4" y2="51.87"/><line class="cls-6" x1="136.54" y1="50.61" x2="136.54" y2="51.87"/><line class="cls-6" x1="135.67" y1="50.61" x2="135.67" y2="51.87"/><line class="cls-6" x1="134.81" y1="50.61" x2="134.81" y2="51.87"/><line class="cls-6" x1="133.95" y1="50.63" x2="133.95" y2="51.89"/><line class="cls-6" x1="133.09" y1="50.63" x2="133.09" y2="51.89"/><line class="cls-6" x1="132.23" y1="50.63" x2="132.23" y2="51.89"/><line class="cls-6" x1="131.37" y1="50.63" x2="131.37" y2="51.89"/><line class="cls-6" x1="130.51" y1="50.63" x2="130.51" y2="51.89"/><line class="cls-6" x1="129.65" y1="50.63" x2="129.65" y2="51.89"/><line class="cls-7" x1="128.79" y1="50.63" x2="128.79" y2="51.89"/><line class="cls-6" x1="141.7" y1="50.61" x2="141.7" y2="51.87"/><line class="cls-6" x1="150.7" y1="42.65" x2="150.7" y2="44.77"/><line class="cls-6" x1="149.84" y1="42.65" x2="149.84" y2="44.77"/><line class="cls-6" x1="148.97" y1="42.65" x2="148.97" y2="44.77"/><line class="cls-6" x1="148.11" y1="42.65" x2="148.11" y2="44.77"/><line class="cls-6" x1="143.78" y1="44.77" x2="143.78" y2="46.89"/><line class="cls-6" x1="142.92" y1="44.77" x2="142.92" y2="46.89"/><line class="cls-6" x1="141.19" y1="44.77" x2="141.19" y2="46.89"/><line class="cls-6" x1="153.58" y1="46.89" x2="153.58" y2="49.01"/><line class="cls-6" x1="152.71" y1="46.89" x2="152.71" y2="49.01"/><line class="cls-6" x1="151.85" y1="46.89" x2="151.85" y2="49.01"/><line class="cls-6" x1="150.03" y1="46.89" x2="150.03" y2="49.01"/><line class="cls-6" x1="149.17" y1="46.89" x2="149.17" y2="49.01"/><line class="cls-6" x1="148.31" y1="46.89" x2="148.31" y2="49.01"/><line class="cls-6" x1="147.45" y1="46.89" x2="147.45" y2="49.01"/><line class="cls-6" x1="146.58" y1="46.89" x2="146.58" y2="49.01"/><line class="cls-6" x1="154.44" y1="46.95" x2="154.44" y2="49.07"/><line class="cls-6" x1="141.25" y1="40.49" x2="141.25" y2="42.61"/><line class="cls-6" x1="142.11" y1="40.49" x2="142.11" y2="42.61"/><line class="cls-6" x1="142.97" y1="40.49" x2="142.97" y2="42.61"/><line class="cls-6" x1="143.83" y1="40.49" x2="143.83" y2="42.61"/><path class="cls-8" d="M160.16,46.88h-4c-1.17-.07-1.64.49-1.64,1.08s.5,1,1.59,1.07h9.54c1.17-.07,1.64.49,1.64,1.08s-.51,1.05-1.59,1.07h-9.54c-.9,0-1.64.48-1.64,1.08s.74,1.09,1.64,1.09l-.05,0h13c1.13,0,1.77.14,1.77,1.05s-.64,1.08-1.83,1.1c-.31,0-6.28-.06-7.43,0-2.43.06-1,2.87-2.16,2.9H143.12" transform="translate(-14.95 -6.49)"/><path class="cls-9" d="M126.2,124.35a5.06,5.06,0,1,0-5.06,5.06,5.07,5.07,0,0,0,5.06-5.06" transform="translate(-14.95 -6.49)"/><path class="cls-10" d="M122.6,123.34a1.93,1.93,0,0,0-2.47-.28,1.71,1.71,0,0,0-.47,2.29,2,2,0,0,0,2.52.3,1.73,1.73,0,0,0,.42-2.31" transform="translate(-14.95 -6.49)"/><path class="cls-11" d="M152.22,117a5.06,5.06,0,1,0-5.06,5.06,5.06,5.06,0,0,0,5.06-5.06" transform="translate(-14.95 -6.49)"/><path class="cls-10" d="M148.63,116a1.94,1.94,0,0,0-2.48-.28,1.73,1.73,0,0,0-.47,2.29,2,2,0,0,0,2.53.3,1.73,1.73,0,0,0,.42-2.31" transform="translate(-14.95 -6.49)"/><path class="cls-12" d="M141.44,120.9a5.06,5.06,0,1,0-5.06,5.06,5.06,5.06,0,0,0,5.06-5.06" transform="translate(-14.95 -6.49)"/><path class="cls-10" d="M137.85,119.89a1.94,1.94,0,0,0-2.48-.28,1.74,1.74,0,0,0-.47,2.3,2,2,0,0,0,2.52.29,1.73,1.73,0,0,0,.43-2.31" transform="translate(-14.95 -6.49)"/><path class="cls-13" d="M129.53,113.51a5.06,5.06,0,1,0-5.07,5.06,5.07,5.07,0,0,0,5.07-5.06" transform="translate(-14.95 -6.49)"/><path class="cls-10" d="M125.93,112.5a2,2,0,0,0-2.48-.28,1.75,1.75,0,0,0-.47,2.3,2,2,0,0,0,2.53.29,1.73,1.73,0,0,0,.42-2.31" transform="translate(-14.95 -6.49)"/><path class="cls-11" d="M136.38,129.41a5.06,5.06,0,1,0-5.06,5.06,5.06,5.06,0,0,0,5.06-5.06" transform="translate(-14.95 -6.49)"/><path class="cls-10" d="M132.79,128.4a1.94,1.94,0,0,0-2.48-.28,1.73,1.73,0,0,0-.47,2.29,2,2,0,0,0,2.52.29,1.71,1.71,0,0,0,.43-2.3" transform="translate(-14.95 -6.49)"/><path class="cls-13" d="M138.86,111.9A5.06,5.06,0,1,0,133.8,117a5.05,5.05,0,0,0,5.06-5.06" transform="translate(-14.95 -6.49)"/><path class="cls-10" d="M135.27,110.89a2,2,0,0,0-2.48-.28,1.74,1.74,0,0,0-.47,2.3,2,2,0,0,0,2.52.29,1.73,1.73,0,0,0,.43-2.31" transform="translate(-14.95 -6.49)"/><path class="cls-13" d="M150.49,126a5.06,5.06,0,1,0-5.06,5.06,5.06,5.06,0,0,0,5.06-5.06" transform="translate(-14.95 -6.49)"/><path class="cls-10" d="M146.9,125a1.94,1.94,0,0,0-2.48-.28A1.73,1.73,0,0,0,144,127a2,2,0,0,0,2.52.3,1.73,1.73,0,0,0,.43-2.31" transform="translate(-14.95 -6.49)"/><path class="cls-11" d="M132.85,120.46a5.06,5.06,0,1,0-5.06,5.06,5.06,5.06,0,0,0,5.06-5.06" transform="translate(-14.95 -6.49)"/><path class="cls-10" d="M129.26,119.45a1.94,1.94,0,0,0-2.48-.28,1.72,1.72,0,0,0-.47,2.29,2,2,0,0,0,2.52.3,1.73,1.73,0,0,0,.43-2.31" transform="translate(-14.95 -6.49)"/><path class="cls-12" d="M149,108.06a5.06,5.06,0,1,0-5.06,5.06,5.06,5.06,0,0,0,5.06-5.06" transform="translate(-14.95 -6.49)"/><path class="cls-10" d="M145.39,107.05a1.94,1.94,0,0,0-2.48-.28,1.72,1.72,0,0,0-.47,2.29,2,2,0,0,0,2.52.3,1.74,1.74,0,0,0,.43-2.31" transform="translate(-14.95 -6.49)"/><path class="cls-11" d="M119.41,117a5.06,5.06,0,1,0-5.06,5.06,5.06,5.06,0,0,0,5.06-5.06" transform="translate(-14.95 -6.49)"/><path class="cls-10" d="M115.81,116a1.94,1.94,0,0,0-2.47-.28,1.72,1.72,0,0,0-.47,2.3,2,2,0,0,0,2.52.29,1.73,1.73,0,0,0,.42-2.31" transform="translate(-14.95 -6.49)"/><path class="cls-12" d="M120.36,108.06a5.06,5.06,0,1,0-5.06,5.06,5.05,5.05,0,0,0,5.06-5.06" transform="translate(-14.95 -6.49)"/><path class="cls-10" d="M116.77,107.05a1.94,1.94,0,0,0-2.48-.28,1.73,1.73,0,0,0-.47,2.29,2,2,0,0,0,2.52.3,1.73,1.73,0,0,0,.43-2.31" transform="translate(-14.95 -6.49)"/><path class="cls-11" d="M130.48,105.24a5.06,5.06,0,1,0-5.06,5.06,5.05,5.05,0,0,0,5.06-5.06" transform="translate(-14.95 -6.49)"/><path class="cls-10" d="M126.89,104.23a1.94,1.94,0,0,0-2.48-.28,1.72,1.72,0,0,0-.47,2.29,2,2,0,0,0,2.52.29,1.71,1.71,0,0,0,.43-2.3" transform="translate(-14.95 -6.49)"/><path class="cls-12" d="M140.59,103.63a5.06,5.06,0,1,0-5.06,5.06,5.05,5.05,0,0,0,5.06-5.06" transform="translate(-14.95 -6.49)"/><path class="cls-10" d="M137,102.62a1.94,1.94,0,0,0-2.48-.28,1.73,1.73,0,0,0-.47,2.29,2,2,0,0,0,2.52.29,1.71,1.71,0,0,0,.43-2.3" transform="translate(-14.95 -6.49)"/><path class="cls-14" d="M122.6,123.34a1.93,1.93,0,0,0-2.47-.28,1.71,1.71,0,0,0-.47,2.29,2,2,0,0,0,2.52.3,1.73,1.73,0,0,0,.42-2.31" transform="translate(-14.95 -6.49)"/><path class="cls-15" d="M152.22,117a5.06,5.06,0,1,0-5.06,5.06,5.06,5.06,0,0,0,5.06-5.06" transform="translate(-14.95 -6.49)"/><path class="cls-14" d="M148.63,116a1.94,1.94,0,0,0-2.48-.28,1.73,1.73,0,0,0-.47,2.29,2,2,0,0,0,2.53.3,1.73,1.73,0,0,0,.42-2.31" transform="translate(-14.95 -6.49)"/><path class="cls-16" d="M141.44,120.9a5.06,5.06,0,1,0-5.06,5.06,5.06,5.06,0,0,0,5.06-5.06" transform="translate(-14.95 -6.49)"/><path class="cls-14" d="M137.85,119.89a1.94,1.94,0,0,0-2.48-.28,1.74,1.74,0,0,0-.47,2.3,2,2,0,0,0,2.52.29,1.73,1.73,0,0,0,.43-2.31" transform="translate(-14.95 -6.49)"/><path class="cls-17" d="M129.53,113.51a5.06,5.06,0,1,0-5.07,5.06,5.07,5.07,0,0,0,5.07-5.06" transform="translate(-14.95 -6.49)"/><path class="cls-14" d="M125.93,112.5a2,2,0,0,0-2.48-.28,1.75,1.75,0,0,0-.47,2.3,2,2,0,0,0,2.53.29,1.73,1.73,0,0,0,.42-2.31" transform="translate(-14.95 -6.49)"/><path class="cls-17" d="M136.38,129.41a5.06,5.06,0,1,0-5.06,5.06,5.06,5.06,0,0,0,5.06-5.06" transform="translate(-14.95 -6.49)"/><path class="cls-14" d="M132.79,128.4a1.94,1.94,0,0,0-2.48-.28,1.73,1.73,0,0,0-.47,2.29,2,2,0,0,0,2.52.29,1.71,1.71,0,0,0,.43-2.3" transform="translate(-14.95 -6.49)"/><path class="cls-17" d="M138.86,111.9A5.06,5.06,0,1,0,133.8,117a5.05,5.05,0,0,0,5.06-5.06" transform="translate(-14.95 -6.49)"/><path class="cls-14" d="M135.27,110.89a2,2,0,0,0-2.48-.28,1.74,1.74,0,0,0-.47,2.3,2,2,0,0,0,2.52.29,1.73,1.73,0,0,0,.43-2.31" transform="translate(-14.95 -6.49)"/><path class="cls-17" d="M150.49,126a5.06,5.06,0,1,0-5.06,5.06,5.06,5.06,0,0,0,5.06-5.06" transform="translate(-14.95 -6.49)"/><path class="cls-14" d="M146.9,125a1.94,1.94,0,0,0-2.48-.28A1.73,1.73,0,0,0,144,127a2,2,0,0,0,2.52.3,1.73,1.73,0,0,0,.43-2.31" transform="translate(-14.95 -6.49)"/><path class="cls-9" d="M132.85,120.46a5.06,5.06,0,1,0-5.06,5.06,5.06,5.06,0,0,0,5.06-5.06" transform="translate(-14.95 -6.49)"/><path class="cls-14" d="M129.26,119.45a1.94,1.94,0,0,0-2.48-.28,1.72,1.72,0,0,0-.47,2.29,2,2,0,0,0,2.52.3,1.73,1.73,0,0,0,.43-2.31" transform="translate(-14.95 -6.49)"/><path class="cls-16" d="M149,108.06a5.06,5.06,0,1,0-5.06,5.06,5.06,5.06,0,0,0,5.06-5.06" transform="translate(-14.95 -6.49)"/><path class="cls-14" d="M145.39,107.05a1.94,1.94,0,0,0-2.48-.28,1.72,1.72,0,0,0-.47,2.29,2,2,0,0,0,2.52.3,1.74,1.74,0,0,0,.43-2.31" transform="translate(-14.95 -6.49)"/><path class="cls-15" d="M119.41,117a5.06,5.06,0,1,0-5.06,5.06,5.06,5.06,0,0,0,5.06-5.06" transform="translate(-14.95 -6.49)"/><path class="cls-14" d="M115.81,116a1.94,1.94,0,0,0-2.47-.28,1.72,1.72,0,0,0-.47,2.3,2,2,0,0,0,2.52.29,1.73,1.73,0,0,0,.42-2.31" transform="translate(-14.95 -6.49)"/><path class="cls-16" d="M120.36,108.06a5.06,5.06,0,1,0-5.06,5.06,5.05,5.05,0,0,0,5.06-5.06" transform="translate(-14.95 -6.49)"/><path class="cls-14" d="M116.77,107.05a1.94,1.94,0,0,0-2.48-.28,1.73,1.73,0,0,0-.47,2.29,2,2,0,0,0,2.52.3,1.73,1.73,0,0,0,.43-2.31" transform="translate(-14.95 -6.49)"/><path class="cls-9" d="M130.48,105.24a5.06,5.06,0,1,0-5.06,5.06,5.05,5.05,0,0,0,5.06-5.06" transform="translate(-14.95 -6.49)"/><path class="cls-14" d="M126.89,104.23a1.94,1.94,0,0,0-2.48-.28,1.72,1.72,0,0,0-.47,2.29,2,2,0,0,0,2.52.29,1.71,1.71,0,0,0,.43-2.3" transform="translate(-14.95 -6.49)"/><path class="cls-16" d="M140.59,103.63a5.06,5.06,0,1,0-5.06,5.06,5.05,5.05,0,0,0,5.06-5.06" transform="translate(-14.95 -6.49)"/><path class="cls-14" d="M137,102.62a1.94,1.94,0,0,0-2.48-.28,1.73,1.73,0,0,0-.47,2.29,2,2,0,0,0,2.52.29,1.71,1.71,0,0,0,.43-2.3" transform="translate(-14.95 -6.49)"/><line class="cls-18" x1="138.87" y1="108.6" x2="185.23" y2="108.6"/><polygon class="cls-19" points="184.79 110.13 187.42 108.61 184.79 107.08 184.79 110.13"/><text class="cls-20" transform="translate(123.45 75.01)"><tspan xml:space="preserve">Nuclease  +</tspan></text><path class="cls-11" d="M220.62,124.35a5.06,5.06,0,1,0-5.06,5.06,5.07,5.07,0,0,0,5.06-5.06" transform="translate(-14.95 -6.49)"/><path class="cls-10" d="M217,123.34a1.94,1.94,0,0,0-2.48-.28,1.72,1.72,0,0,0-.47,2.29,2,2,0,0,0,2.52.3,1.74,1.74,0,0,0,.43-2.31" transform="translate(-14.95 -6.49)"/><path class="cls-11" d="M246.65,117a5.06,5.06,0,1,0-5.06,5.06,5.07,5.07,0,0,0,5.06-5.06" transform="translate(-14.95 -6.49)"/><path class="cls-10" d="M243.06,116a1.94,1.94,0,0,0-2.48-.28,1.71,1.71,0,0,0-.47,2.29,2,2,0,0,0,2.52.3,1.75,1.75,0,0,0,.43-2.31" transform="translate(-14.95 -6.49)"/><path class="cls-12" d="M235.87,120.9a5.06,5.06,0,1,0-5.06,5.06,5.07,5.07,0,0,0,5.06-5.06" transform="translate(-14.95 -6.49)"/><path class="cls-10" d="M232.27,119.89a1.92,1.92,0,0,0-2.47-.28,1.72,1.72,0,0,0-.47,2.3,2,2,0,0,0,2.52.29,1.73,1.73,0,0,0,.42-2.31" transform="translate(-14.95 -6.49)"/><path class="cls-13" d="M224,113.51a5.06,5.06,0,1,0-5.06,5.06,5.07,5.07,0,0,0,5.06-5.06" transform="translate(-14.95 -6.49)"/><path class="cls-10" d="M220.36,112.5a2,2,0,0,0-2.48-.28,1.72,1.72,0,0,0-.47,2.3,2,2,0,0,0,2.52.29,1.75,1.75,0,0,0,.43-2.31" transform="translate(-14.95 -6.49)"/><path class="cls-11" d="M230.81,129.41a5.06,5.06,0,1,0-5.06,5.06,5.07,5.07,0,0,0,5.06-5.06" transform="translate(-14.95 -6.49)"/><path class="cls-10" d="M227.21,128.4a1.92,1.92,0,0,0-2.47-.28,1.71,1.71,0,0,0-.47,2.29,2,2,0,0,0,2.52.29,1.72,1.72,0,0,0,.42-2.3" transform="translate(-14.95 -6.49)"/><path class="cls-13" d="M233.29,111.9a5.06,5.06,0,1,0-5.06,5.06,5.06,5.06,0,0,0,5.06-5.06" transform="translate(-14.95 -6.49)"/><path class="cls-10" d="M229.69,110.89a1.94,1.94,0,0,0-2.47-.28,1.72,1.72,0,0,0-.47,2.3,2,2,0,0,0,2.52.29,1.73,1.73,0,0,0,.42-2.31" transform="translate(-14.95 -6.49)"/><path class="cls-13" d="M244.92,126a5.06,5.06,0,1,0-5.06,5.06,5.07,5.07,0,0,0,5.06-5.06" transform="translate(-14.95 -6.49)"/><path class="cls-10" d="M241.32,125a1.92,1.92,0,0,0-2.47-.28,1.71,1.71,0,0,0-.47,2.29,2,2,0,0,0,2.52.3,1.73,1.73,0,0,0,.42-2.31" transform="translate(-14.95 -6.49)"/><path class="cls-11" d="M227.28,120.46a5.06,5.06,0,1,0-5.06,5.06,5.07,5.07,0,0,0,5.06-5.06" transform="translate(-14.95 -6.49)"/><path class="cls-10" d="M223.69,119.45a1.94,1.94,0,0,0-2.48-.28,1.71,1.71,0,0,0-.47,2.29,2,2,0,0,0,2.52.3,1.75,1.75,0,0,0,.43-2.31" transform="translate(-14.95 -6.49)"/><path class="cls-12" d="M243.4,108.06a5.06,5.06,0,1,0-5.06,5.06,5.05,5.05,0,0,0,5.06-5.06" transform="translate(-14.95 -6.49)"/><path class="cls-10" d="M239.81,107.05a1.94,1.94,0,0,0-2.48-.28,1.73,1.73,0,0,0-.47,2.29,2,2,0,0,0,2.52.3,1.73,1.73,0,0,0,.43-2.31" transform="translate(-14.95 -6.49)"/><path class="cls-11" d="M213.83,117a5.06,5.06,0,1,0-5.06,5.06,5.06,5.06,0,0,0,5.06-5.06" transform="translate(-14.95 -6.49)"/><path class="cls-10" d="M210.24,116a2,2,0,0,0-2.48-.28,1.74,1.74,0,0,0-.47,2.3,2,2,0,0,0,2.52.29,1.74,1.74,0,0,0,.43-2.31" transform="translate(-14.95 -6.49)"/><path class="cls-12" d="M214.79,108.06a5.06,5.06,0,1,0-5.06,5.06,5.06,5.06,0,0,0,5.06-5.06" transform="translate(-14.95 -6.49)"/><path class="cls-10" d="M211.2,107.05a1.94,1.94,0,0,0-2.48-.28,1.71,1.71,0,0,0-.47,2.29,2,2,0,0,0,2.52.3,1.75,1.75,0,0,0,.43-2.31" transform="translate(-14.95 -6.49)"/><path class="cls-11" d="M224.91,105.24a5.06,5.06,0,1,0-5.06,5.06,5.06,5.06,0,0,0,5.06-5.06" transform="translate(-14.95 -6.49)"/><path class="cls-10" d="M221.31,104.23a1.92,1.92,0,0,0-2.47-.28,1.71,1.71,0,0,0-.47,2.29,2,2,0,0,0,2.52.29,1.72,1.72,0,0,0,.42-2.3" transform="translate(-14.95 -6.49)"/><path class="cls-12" d="M235,103.63a5.06,5.06,0,1,0-5.06,5.06,5.06,5.06,0,0,0,5.06-5.06" transform="translate(-14.95 -6.49)"/><path class="cls-10" d="M231.42,102.62a1.92,1.92,0,0,0-2.47-.28,1.71,1.71,0,0,0-.47,2.29,2,2,0,0,0,2.52.29,1.72,1.72,0,0,0,.42-2.3" transform="translate(-14.95 -6.49)"/><path class="cls-15" d="M220.62,124.35a5.06,5.06,0,1,0-5.06,5.06,5.07,5.07,0,0,0,5.06-5.06" transform="translate(-14.95 -6.49)"/><path class="cls-14" d="M217,123.34a1.94,1.94,0,0,0-2.48-.28,1.72,1.72,0,0,0-.47,2.29,2,2,0,0,0,2.52.3,1.74,1.74,0,0,0,.43-2.31" transform="translate(-14.95 -6.49)"/><path class="cls-15" d="M246.65,117a5.06,5.06,0,1,0-5.06,5.06,5.07,5.07,0,0,0,5.06-5.06" transform="translate(-14.95 -6.49)"/><path class="cls-14" d="M243.06,116a1.94,1.94,0,0,0-2.48-.28,1.71,1.71,0,0,0-.47,2.29,2,2,0,0,0,2.52.3,1.75,1.75,0,0,0,.43-2.31" transform="translate(-14.95 -6.49)"/><path class="cls-16" d="M235.87,120.9a5.06,5.06,0,1,0-5.06,5.06,5.07,5.07,0,0,0,5.06-5.06" transform="translate(-14.95 -6.49)"/><path class="cls-14" d="M232.27,119.89a1.92,1.92,0,0,0-2.47-.28,1.72,1.72,0,0,0-.47,2.3,2,2,0,0,0,2.52.29,1.73,1.73,0,0,0,.42-2.31" transform="translate(-14.95 -6.49)"/><path class="cls-17" d="M224,113.51a5.06,5.06,0,1,0-5.06,5.06,5.07,5.07,0,0,0,5.06-5.06" transform="translate(-14.95 -6.49)"/><path class="cls-14" d="M220.36,112.5a2,2,0,0,0-2.48-.28,1.72,1.72,0,0,0-.47,2.3,2,2,0,0,0,2.52.29,1.75,1.75,0,0,0,.43-2.31" transform="translate(-14.95 -6.49)"/><path class="cls-17" d="M230.81,129.41a5.06,5.06,0,1,0-5.06,5.06,5.07,5.07,0,0,0,5.06-5.06" transform="translate(-14.95 -6.49)"/><path class="cls-14" d="M227.21,128.4a1.92,1.92,0,0,0-2.47-.28,1.71,1.71,0,0,0-.47,2.29,2,2,0,0,0,2.52.29,1.72,1.72,0,0,0,.42-2.3" transform="translate(-14.95 -6.49)"/><path class="cls-17" d="M233.29,111.9a5.06,5.06,0,1,0-5.06,5.06,5.06,5.06,0,0,0,5.06-5.06" transform="translate(-14.95 -6.49)"/><path class="cls-14" d="M229.69,110.89a1.94,1.94,0,0,0-2.47-.28,1.72,1.72,0,0,0-.47,2.3,2,2,0,0,0,2.52.29,1.73,1.73,0,0,0,.42-2.31" transform="translate(-14.95 -6.49)"/><path class="cls-17" d="M244.92,126a5.06,5.06,0,1,0-5.06,5.06,5.07,5.07,0,0,0,5.06-5.06" transform="translate(-14.95 -6.49)"/><path class="cls-14" d="M241.32,125a1.92,1.92,0,0,0-2.47-.28,1.71,1.71,0,0,0-.47,2.29,2,2,0,0,0,2.52.3,1.73,1.73,0,0,0,.42-2.31" transform="translate(-14.95 -6.49)"/><path class="cls-9" d="M227.28,120.46a5.06,5.06,0,1,0-5.06,5.06,5.07,5.07,0,0,0,5.06-5.06" transform="translate(-14.95 -6.49)"/><path class="cls-14" d="M223.69,119.45a1.94,1.94,0,0,0-2.48-.28,1.71,1.71,0,0,0-.47,2.29,2,2,0,0,0,2.52.3,1.75,1.75,0,0,0,.43-2.31" transform="translate(-14.95 -6.49)"/><path class="cls-16" d="M243.4,108.06a5.06,5.06,0,1,0-5.06,5.06,5.05,5.05,0,0,0,5.06-5.06" transform="translate(-14.95 -6.49)"/><path class="cls-14" d="M239.81,107.05a1.94,1.94,0,0,0-2.48-.28,1.73,1.73,0,0,0-.47,2.29,2,2,0,0,0,2.52.3,1.73,1.73,0,0,0,.43-2.31" transform="translate(-14.95 -6.49)"/><path class="cls-15" d="M213.83,117a5.06,5.06,0,1,0-5.06,5.06,5.06,5.06,0,0,0,5.06-5.06" transform="translate(-14.95 -6.49)"/><path class="cls-14" d="M210.24,116a2,2,0,0,0-2.48-.28,1.74,1.74,0,0,0-.47,2.3,2,2,0,0,0,2.52.29,1.74,1.74,0,0,0,.43-2.31" transform="translate(-14.95 -6.49)"/><path class="cls-16" d="M214.79,108.06a5.06,5.06,0,1,0-5.06,5.06,5.06,5.06,0,0,0,5.06-5.06" transform="translate(-14.95 -6.49)"/><path class="cls-14" d="M211.2,107.05a1.94,1.94,0,0,0-2.48-.28,1.71,1.71,0,0,0-.47,2.29,2,2,0,0,0,2.52.3,1.75,1.75,0,0,0,.43-2.31" transform="translate(-14.95 -6.49)"/><path class="cls-9" d="M224.91,105.24a5.06,5.06,0,1,0-5.06,5.06,5.06,5.06,0,0,0,5.06-5.06" transform="translate(-14.95 -6.49)"/><path class="cls-14" d="M221.31,104.23a1.92,1.92,0,0,0-2.47-.28,1.71,1.71,0,0,0-.47,2.29,2,2,0,0,0,2.52.29,1.72,1.72,0,0,0,.42-2.3" transform="translate(-14.95 -6.49)"/><path class="cls-16" d="M235,103.63a5.06,5.06,0,1,0-5.06,5.06,5.06,5.06,0,0,0,5.06-5.06" transform="translate(-14.95 -6.49)"/><path class="cls-14" d="M231.42,102.62a1.92,1.92,0,0,0-2.47-.28,1.71,1.71,0,0,0-.47,2.29,2,2,0,0,0,2.52.29,1.72,1.72,0,0,0,.42-2.3" transform="translate(-14.95 -6.49)"/><text class="cls-20" transform="translate(265.72 96.82)">Repair<tspan x="-4.86" y="7">outcomes</tspan><tspan x="8.56" y="14">x</tspan><tspan x="-3.69" y="21">CRISPRi</tspan><tspan x="-0.78" y="28">sgRNA</tspan><tspan x="-3.5" y="35">identities</tspan></text><text class="cls-20" transform="translate(165.94 61.42)">DNA donor<tspan x="11.09" y="7">with</tspan><tspan x="-2.53" y="14">programmed</tspan><tspan x="8.37" y="21">SNVs</tspan></text><line class="cls-18" x1="233.11" y1="108.6" x2="255.18" y2="108.6"/><polygon class="cls-19" points="254.74 110.13 257.37 108.61 254.74 107.08 254.74 110.13"/><path class="cls-18" d="M182.61,115.1h0a8.39,8.39,0,0,1-8.39-8.39V93" transform="translate(-14.95 -6.49)"/><path class="cls-18" d="M86.74,115.1h0a8.39,8.39,0,0,1-8.38-8.39V87.42" transform="translate(-14.95 -6.49)"/><text class="cls-20" transform="translate(167.49 7.81)">Arbitrary editing modality</text><text class="cls-20" transform="translate(159.27 31.52)">Prime editor</text><text class="cls-20" transform="translate(174.65 19.74)">Base editor</text><line class="cls-21" x1="109.58" y1="64.57" x2="15.34" y2="64.57"/><rect class="cls-22" x="31.63" y="62.47" width="18.12" height="4.01" rx="1.14"/><polyline class="cls-23" points="29.04 64.47 29.04 59.54 31.93 59.54"/><polygon class="cls-24" points="31.63 60.57 33.42 59.54 31.63 58.5 31.63 60.57"/><rect class="cls-25" x="78.33" y="62.54" width="18.12" height="4.01" rx="1.14"/><text class="cls-20" transform="translate(15.33 49.16)">CRISPRi sgRNA<tspan x="16.53" y="7">library</tspan></text><rect class="cls-26" x="31.63" y="67.74" width="18.12" height="4.01" rx="1.14"/><rect class="cls-27" x="31.63" y="73" width="18.12" height="4.01" rx="1.14"/><text class="cls-28" transform="translate(77.16 49.16)">Target<tspan x="0.39" y="7">region</tspan></text><rect class="cls-23" x="13.41" y="41.46" width="98" height="38.67"/><path class="cls-29" d="M92.35,72.28" transform="translate(-14.95 -6.49)"/><path class="cls-30" d="M32.47,123.94a5.23,5.23,0,1,0-5.23,5.23,5.23,5.23,0,0,0,5.23-5.23" transform="translate(-14.95 -6.49)"/><path class="cls-14" d="M28.76,122.89a2,2,0,0,0-2.56-.28,1.77,1.77,0,0,0-.49,2.37,2.07,2.07,0,0,0,2.6.3,1.79,1.79,0,0,0,.45-2.39" transform="translate(-14.95 -6.49)"/><path class="cls-30" d="M59.37,116.35a5.23,5.23,0,1,0-5.23,5.23,5.23,5.23,0,0,0,5.23-5.23" transform="translate(-14.95 -6.49)"/><path class="cls-14" d="M55.65,115.31a2,2,0,0,0-2.56-.29,1.78,1.78,0,0,0-.48,2.37,2.05,2.05,0,0,0,2.6.3,1.76,1.76,0,0,0,.44-2.38" transform="translate(-14.95 -6.49)"/><path class="cls-30" d="M48.22,120.37A5.23,5.23,0,1,0,43,125.6a5.23,5.23,0,0,0,5.23-5.23" transform="translate(-14.95 -6.49)"/><path class="cls-14" d="M44.51,119.33A2,2,0,0,0,42,119a1.77,1.77,0,0,0-.48,2.37,2.05,2.05,0,0,0,2.6.3,1.78,1.78,0,0,0,.44-2.38" transform="translate(-14.95 -6.49)"/><path class="cls-30" d="M35.91,112.74A5.23,5.23,0,1,0,30.68,118a5.23,5.23,0,0,0,5.23-5.23" transform="translate(-14.95 -6.49)"/><path class="cls-14" d="M32.2,111.69a2,2,0,0,0-2.57-.28,1.78,1.78,0,0,0-.48,2.37,2.07,2.07,0,0,0,2.6.3,1.79,1.79,0,0,0,.45-2.39" transform="translate(-14.95 -6.49)"/><path class="cls-30" d="M43,129.17a5.23,5.23,0,1,0-5.23,5.22A5.23,5.23,0,0,0,43,129.17" transform="translate(-14.95 -6.49)"/><path class="cls-14" d="M39.28,128.12a2,2,0,0,0-2.56-.29,1.78,1.78,0,0,0-.48,2.37,2.05,2.05,0,0,0,2.6.3,1.77,1.77,0,0,0,.44-2.38" transform="translate(-14.95 -6.49)"/><path class="cls-30" d="M45.56,111.08a5.23,5.23,0,1,0-5.23,5.23,5.23,5.23,0,0,0,5.23-5.23" transform="translate(-14.95 -6.49)"/><path class="cls-14" d="M41.84,110a2,2,0,0,0-2.56-.29,1.78,1.78,0,0,0-.48,2.37,2.07,2.07,0,0,0,2.6.31,1.78,1.78,0,0,0,.44-2.39" transform="translate(-14.95 -6.49)"/><path class="cls-30" d="M57.58,125.6a5.23,5.23,0,1,0-5.23,5.23,5.23,5.23,0,0,0,5.23-5.23" transform="translate(-14.95 -6.49)"/><path class="cls-14" d="M53.86,124.56a2,2,0,0,0-2.56-.29,1.78,1.78,0,0,0-.48,2.37,2.05,2.05,0,0,0,2.6.3,1.76,1.76,0,0,0,.44-2.38" transform="translate(-14.95 -6.49)"/><path class="cls-30" d="M39.35,119.92a5.23,5.23,0,1,0-5.23,5.23,5.23,5.23,0,0,0,5.23-5.23" transform="translate(-14.95 -6.49)"/><path class="cls-14" d="M35.64,118.87a2,2,0,0,0-2.57-.29,1.8,1.8,0,0,0-.48,2.38,2.07,2.07,0,0,0,2.6.3,1.79,1.79,0,0,0,.45-2.39" transform="translate(-14.95 -6.49)"/><path class="cls-30" d="M56,107.1a5.23,5.23,0,1,0-5.23,5.23A5.23,5.23,0,0,0,56,107.1" transform="translate(-14.95 -6.49)"/><path class="cls-14" d="M52.3,106.06a2,2,0,0,0-2.56-.29,1.79,1.79,0,0,0-.49,2.37,2.07,2.07,0,0,0,2.61.3,1.78,1.78,0,0,0,.44-2.38" transform="translate(-14.95 -6.49)"/><path class="cls-30" d="M25.45,116.3a5.23,5.23,0,1,0-5.23,5.23,5.23,5.23,0,0,0,5.23-5.23" transform="translate(-14.95 -6.49)"/><path class="cls-14" d="M21.74,115.26a2,2,0,0,0-2.56-.29,1.79,1.79,0,0,0-.49,2.37,2.07,2.07,0,0,0,2.61.3,1.78,1.78,0,0,0,.44-2.38" transform="translate(-14.95 -6.49)"/><path class="cls-30" d="M26.44,107.1a5.23,5.23,0,1,0-5.23,5.23,5.23,5.23,0,0,0,5.23-5.23" transform="translate(-14.95 -6.49)"/><path class="cls-14" d="M22.73,106.06a2,2,0,0,0-2.56-.29,1.79,1.79,0,0,0-.49,2.37,2.07,2.07,0,0,0,2.61.3,1.78,1.78,0,0,0,.44-2.38" transform="translate(-14.95 -6.49)"/><path class="cls-30" d="M36.9,104.19a5.23,5.23,0,1,0-5.23,5.23,5.23,5.23,0,0,0,5.23-5.23" transform="translate(-14.95 -6.49)"/><path class="cls-14" d="M33.19,103.14a2,2,0,0,0-2.57-.29,1.78,1.78,0,0,0-.48,2.37,2.08,2.08,0,0,0,2.61.31,1.8,1.8,0,0,0,.44-2.39" transform="translate(-14.95 -6.49)"/><path class="cls-30" d="M47.35,102.52a5.23,5.23,0,1,0-5.23,5.23,5.23,5.23,0,0,0,5.23-5.23" transform="translate(-14.95 -6.49)"/><path class="cls-14" d="M43.63,101.48a2,2,0,0,0-2.56-.29,1.78,1.78,0,0,0-.48,2.37,2.05,2.05,0,0,0,2.6.3,1.77,1.77,0,0,0,.44-2.38" transform="translate(-14.95 -6.49)"/><line class="cls-31" x1="46.36" y1="108.66" x2="88.95" y2="108.66"/><polygon class="cls-19" points="88.47 110.29 91.31 108.66 88.47 107.02 88.47 110.29"/></svg>