<svg id="Layer_1" data-name="Layer 1" xmlns="http://www.w3.org/2000/svg" viewBox="0 0 195.69 171.83"><defs><style>.cls-1,.cls-2{fill:#fff;stroke-width:0.42px;}.cls-1,.cls-15,.cls-16,.cls-17,.cls-2,.cls-9{stroke:#231f20;}.cls-1,.cls-15,.cls-16,.cls-17,.cls-2,.cls-3,.cls-6,.cls-7,.cls-8,.cls-9{stroke-miterlimit:10;}.cls-1{stroke-dasharray:1.69 0.85;}.cls-18,.cls-3,.cls-6,.cls-7,.cls-8{fill:none;}.cls-3{stroke:#d46127;stroke-width:0.87px;}.cls-4{fill:#d46127;}.cls-5{fill:#bcbec0;}.cls-6,.cls-7{stroke:#ba8f2e;}.cls-6,.cls-8{stroke-width:0.32px;}.cls-7{stroke-width:0.4px;}.cls-8{stroke:#a07d2d;}.cls-11,.cls-15,.cls-9{fill:#d3638d;}.cls-15,.cls-16,.cls-17,.cls-9{stroke-width:0.1px;}.cls-10{fill:#9f9fa0;}.cls-12{fill:#cfd2d3;}.cls-13{fill:#92c251;}.cls-14{fill:#939598;}.cls-15{opacity:0.8;}.cls-16{fill:#8fc14f;}.cls-17{fill:#6d6e71;}.cls-18{stroke:#010101;stroke-linejoin:round;stroke-width:0.41px;}.cls-19{fill:#010101;}.cls-20{font-size:7px;}.cls-20,.cls-21{fill:#231f20;font-family:ArialMT, Arial;}.cls-21{font-size:11px;}</style></defs><rect class="cls-1" x="62.97" y="29.6" width="86.11" height="52.53"/><rect class="cls-1" x="49.29" y="40.65" width="86.11" height="52.53"/><rect class="cls-2" x="36.6" y="51.86" width="84.13" height="52.22"/><polyline class="cls-3" points="83.52 56.1 98.17 66.22 108.98 66.22 114.92 66.23"/><polygon class="cls-4" points="113.19 67.7 114.67 66.23 113.2 64.76 114.44 64.76 115.91 66.23 114.44 67.7 113.19 67.7"/><path class="cls-5" d="M45.86,66.51c-2.1-1.23-3.37-2.8-3.37-4.51,0-3.91,6.61-7.08,14.76-7.08S72,58.09,72,62c0,1.69-1.23,3.24-3.28,4.45v0l.52.32c2,1.35,3.26,3,3.26,4.9,0,4.32-6.6,7.82-14.75,7.82a22.6,22.6,0,0,1-10.6-2.38h.06a9.82,9.82,0,0,1-1.09.06c-4.18,0-7.57-2.4-7.57-5.35a6.6,6.6,0,0,1,6.54-6.57"/><line class="cls-6" x1="59.48" y1="68.18" x2="59.48" y2="69.44"/><line class="cls-6" x1="58.62" y1="68.18" x2="58.62" y2="69.44"/><line class="cls-6" x1="57.76" y1="68.18" x2="57.76" y2="69.44"/><line class="cls-6" x1="56.03" y1="68.18" x2="56.03" y2="69.44"/><line class="cls-6" x1="55.17" y1="68.18" x2="55.17" y2="69.44"/><line class="cls-6" x1="54.31" y1="68.18" x2="54.31" y2="69.44"/><line class="cls-6" x1="53.45" y1="68.18" x2="53.45" y2="69.44"/><line class="cls-6" x1="52.59" y1="68.18" x2="52.59" y2="69.44"/><line class="cls-6" x1="51.73" y1="68.18" x2="51.73" y2="69.44"/><line class="cls-6" x1="50.87" y1="68.18" x2="50.87" y2="69.44"/><line class="cls-6" x1="50.01" y1="68.18" x2="50.01" y2="69.44"/><line class="cls-6" x1="49.15" y1="68.19" x2="49.15" y2="69.46"/><line class="cls-6" x1="48.29" y1="68.19" x2="48.29" y2="69.46"/><line class="cls-6" x1="47.43" y1="68.19" x2="47.43" y2="69.46"/><line class="cls-6" x1="46.57" y1="68.19" x2="46.57" y2="69.46"/><line class="cls-6" x1="45.7" y1="68.19" x2="45.7" y2="69.46"/><line class="cls-6" x1="44.84" y1="68.19" x2="44.84" y2="69.46"/><line class="cls-7" x1="43.98" y1="68.19" x2="43.98" y2="69.46"/><line class="cls-6" x1="56.9" y1="68.18" x2="56.9" y2="69.44"/><line class="cls-6" x1="65.89" y1="60.22" x2="65.89" y2="62.34"/><line class="cls-6" x1="65.03" y1="60.22" x2="65.03" y2="62.34"/><line class="cls-6" x1="64.17" y1="60.22" x2="64.17" y2="62.34"/><line class="cls-6" x1="63.31" y1="60.22" x2="63.31" y2="62.34"/><line class="cls-6" x1="58.98" y1="62.34" x2="58.98" y2="64.46"/><line class="cls-6" x1="58.11" y1="62.34" x2="58.11" y2="64.46"/><line class="cls-6" x1="56.39" y1="62.34" x2="56.39" y2="64.46"/><line class="cls-6" x1="68.77" y1="64.46" x2="68.77" y2="66.58"/><line class="cls-6" x1="67.91" y1="64.46" x2="67.91" y2="66.58"/><line class="cls-6" x1="67.05" y1="64.46" x2="67.05" y2="66.58"/><line class="cls-6" x1="65.23" y1="64.46" x2="65.23" y2="66.58"/><line class="cls-6" x1="64.37" y1="64.46" x2="64.37" y2="66.58"/><line class="cls-6" x1="63.5" y1="64.46" x2="63.5" y2="66.58"/><line class="cls-6" x1="62.64" y1="64.46" x2="62.64" y2="66.58"/><line class="cls-6" x1="61.78" y1="64.46" x2="61.78" y2="66.58"/><line class="cls-6" x1="69.63" y1="64.52" x2="69.63" y2="66.64"/><line class="cls-6" x1="56.44" y1="58.06" x2="56.44" y2="60.18"/><line class="cls-6" x1="57.3" y1="58.06" x2="57.3" y2="60.18"/><line class="cls-6" x1="58.16" y1="58.06" x2="58.16" y2="60.18"/><line class="cls-6" x1="59.03" y1="58.06" x2="59.03" y2="60.18"/><path class="cls-8" d="M60.41,58h-4c-1.17-.07-1.63.48-1.63,1.08s.5,1.05,1.58,1.07h9.54c1.17-.07,1.64.48,1.64,1.08s-.5,1-1.59,1.07H56.42c-.9,0-1.63.48-1.63,1.08s.73,1.08,1.63,1.08h13c1.13,0,1.77.15,1.77,1.06s-.64,1.08-1.83,1.1c-.31,0-6.28-.07-7.42,0-2.44,0-1.05,2.86-2.17,2.9H43.36"/><path class="cls-9" d="M42.41,135.43a5.06,5.06,0,1,0-5.06,5.06,5.06,5.06,0,0,0,5.06-5.06"/><path class="cls-10" d="M38.82,134.42a1.94,1.94,0,0,0-2.48-.28,1.71,1.71,0,0,0-.47,2.29,2,2,0,0,0,2.52.29,1.73,1.73,0,0,0,.43-2.3"/><path class="cls-11" d="M68.44,128.09a5.06,5.06,0,1,0-5.06,5.06,5.07,5.07,0,0,0,5.06-5.06"/><path class="cls-10" d="M64.84,127.08a1.92,1.92,0,0,0-2.47-.28,1.71,1.71,0,0,0-.47,2.29,2,2,0,0,0,2.52.29,1.72,1.72,0,0,0,.42-2.3"/><path class="cls-12" d="M57.66,132A5.06,5.06,0,1,0,52.59,137,5.07,5.07,0,0,0,57.66,132"/><path class="cls-10" d="M54.06,131a1.94,1.94,0,0,0-2.48-.28,1.73,1.73,0,0,0-.47,2.29,2,2,0,0,0,2.53.29,1.72,1.72,0,0,0,.42-2.3"/><path class="cls-13" d="M45.74,124.59a5.06,5.06,0,1,0-5.06,5.06,5.07,5.07,0,0,0,5.06-5.06"/><path class="cls-10" d="M42.14,123.58a1.92,1.92,0,0,0-2.47-.28,1.71,1.71,0,0,0-.47,2.29,2,2,0,0,0,2.52.3,1.73,1.73,0,0,0,.42-2.31"/><path class="cls-11" d="M52.6,140.49a5.06,5.06,0,1,0-5.06,5,5.06,5.06,0,0,0,5.06-5"/><path class="cls-10" d="M49,139.48a1.94,1.94,0,0,0-2.47-.29,1.72,1.72,0,0,0-.47,2.3,2,2,0,0,0,2.52.29,1.72,1.72,0,0,0,.42-2.3"/><path class="cls-13" d="M55.08,123A5.06,5.06,0,1,0,50,128,5.07,5.07,0,0,0,55.08,123"/><path class="cls-10" d="M51.48,122a1.94,1.94,0,0,0-2.48-.28,1.75,1.75,0,0,0-.47,2.3,2,2,0,0,0,2.53.29,1.73,1.73,0,0,0,.42-2.31"/><path class="cls-13" d="M66.71,137a5.06,5.06,0,1,0-5.06,5.06A5.06,5.06,0,0,0,66.71,137"/><path class="cls-10" d="M63.11,136a1.92,1.92,0,0,0-2.47-.28,1.71,1.71,0,0,0-.47,2.29,2,2,0,0,0,2.52.29,1.72,1.72,0,0,0,.42-2.3"/><path class="cls-11" d="M49.07,131.54A5.06,5.06,0,1,0,44,136.6a5.06,5.06,0,0,0,5.06-5.06"/><path class="cls-10" d="M45.47,130.52a2,2,0,0,0-2.48-.27,1.73,1.73,0,0,0-.47,2.29,2,2,0,0,0,2.53.29,1.73,1.73,0,0,0,.42-2.31"/><path class="cls-12" d="M65.19,119.13a5.06,5.06,0,1,0-5.06,5.07,5.05,5.05,0,0,0,5.06-5.07"/><path class="cls-10" d="M61.6,118.12a1.94,1.94,0,0,0-2.48-.27,1.72,1.72,0,0,0-.47,2.29,2,2,0,0,0,2.52.29,1.72,1.72,0,0,0,.43-2.31"/><path class="cls-11" d="M35.62,128a5.06,5.06,0,1,0-5.06,5.06A5.07,5.07,0,0,0,35.62,128"/><path class="cls-10" d="M32,127a1.94,1.94,0,0,0-2.48-.28,1.71,1.71,0,0,0-.47,2.29,2,2,0,0,0,2.52.3A1.75,1.75,0,0,0,32,127"/><path class="cls-12" d="M36.58,119.13a5.06,5.06,0,1,0-5.06,5.07,5.06,5.06,0,0,0,5.06-5.07"/><path class="cls-10" d="M33,118.12a1.92,1.92,0,0,0-2.47-.27,1.71,1.71,0,0,0-.47,2.29,2,2,0,0,0,2.52.29,1.73,1.73,0,0,0,.42-2.31"/><path class="cls-11" d="M46.7,116.31a5.06,5.06,0,1,0-5.06,5.06,5.06,5.06,0,0,0,5.06-5.06"/><path class="cls-10" d="M43.1,115.3a2,2,0,0,0-2.48-.28,1.75,1.75,0,0,0-.47,2.3,2,2,0,0,0,2.53.29,1.73,1.73,0,0,0,.42-2.31"/><path class="cls-12" d="M56.81,114.7a5.06,5.06,0,1,0-5.06,5.06,5.06,5.06,0,0,0,5.06-5.06"/><path class="cls-10" d="M53.21,113.69a1.93,1.93,0,0,0-2.47-.27,1.72,1.72,0,0,0-.48,2.29,2,2,0,0,0,2.53.29,1.73,1.73,0,0,0,.42-2.31"/><path class="cls-14" d="M38.82,134.42a1.94,1.94,0,0,0-2.48-.28,1.71,1.71,0,0,0-.47,2.29,2,2,0,0,0,2.52.29,1.73,1.73,0,0,0,.43-2.3"/><path class="cls-15" d="M68.44,128.09a5.06,5.06,0,1,0-5.06,5.06,5.07,5.07,0,0,0,5.06-5.06"/><path class="cls-14" d="M64.84,127.08a1.92,1.92,0,0,0-2.47-.28,1.71,1.71,0,0,0-.47,2.29,2,2,0,0,0,2.52.29,1.72,1.72,0,0,0,.42-2.3"/><path class="cls-16" d="M57.66,132A5.06,5.06,0,1,0,52.59,137,5.07,5.07,0,0,0,57.66,132"/><path class="cls-14" d="M54.06,131a1.94,1.94,0,0,0-2.48-.28,1.73,1.73,0,0,0-.47,2.29,2,2,0,0,0,2.53.29,1.72,1.72,0,0,0,.42-2.3"/><path class="cls-17" d="M45.74,124.59a5.06,5.06,0,1,0-5.06,5.06,5.07,5.07,0,0,0,5.06-5.06"/><path class="cls-14" d="M42.14,123.58a1.92,1.92,0,0,0-2.47-.28,1.71,1.71,0,0,0-.47,2.29,2,2,0,0,0,2.52.3,1.73,1.73,0,0,0,.42-2.31"/><path class="cls-17" d="M52.6,140.49a5.06,5.06,0,1,0-5.06,5,5.06,5.06,0,0,0,5.06-5"/><path class="cls-14" d="M49,139.48a1.94,1.94,0,0,0-2.47-.29,1.72,1.72,0,0,0-.47,2.3,2,2,0,0,0,2.52.29,1.72,1.72,0,0,0,.42-2.3"/><path class="cls-17" d="M55.08,123A5.06,5.06,0,1,0,50,128,5.07,5.07,0,0,0,55.08,123"/><path class="cls-14" d="M51.48,122a1.94,1.94,0,0,0-2.48-.28,1.75,1.75,0,0,0-.47,2.3,2,2,0,0,0,2.53.29,1.73,1.73,0,0,0,.42-2.31"/><path class="cls-17" d="M66.71,137a5.06,5.06,0,1,0-5.06,5.06A5.06,5.06,0,0,0,66.71,137"/><path class="cls-14" d="M63.11,136a1.92,1.92,0,0,0-2.47-.28,1.71,1.71,0,0,0-.47,2.29,2,2,0,0,0,2.52.29,1.72,1.72,0,0,0,.42-2.3"/><path class="cls-9" d="M49.07,131.54A5.06,5.06,0,1,0,44,136.6a5.06,5.06,0,0,0,5.06-5.06"/><path class="cls-14" d="M45.47,130.52a2,2,0,0,0-2.48-.27,1.73,1.73,0,0,0-.47,2.29,2,2,0,0,0,2.53.29,1.73,1.73,0,0,0,.42-2.31"/><path class="cls-16" d="M65.19,119.13a5.06,5.06,0,1,0-5.06,5.07,5.05,5.05,0,0,0,5.06-5.07"/><path class="cls-14" d="M61.6,118.12a1.94,1.94,0,0,0-2.48-.27,1.72,1.72,0,0,0-.47,2.29,2,2,0,0,0,2.52.29,1.72,1.72,0,0,0,.43-2.31"/><path class="cls-15" d="M35.62,128a5.06,5.06,0,1,0-5.06,5.06A5.07,5.07,0,0,0,35.62,128"/><path class="cls-14" d="M32,127a1.94,1.94,0,0,0-2.48-.28,1.71,1.71,0,0,0-.47,2.29,2,2,0,0,0,2.52.3A1.75,1.75,0,0,0,32,127"/><path class="cls-16" d="M36.58,119.13a5.06,5.06,0,1,0-5.06,5.07,5.06,5.06,0,0,0,5.06-5.07"/><path class="cls-14" d="M33,118.12a1.92,1.92,0,0,0-2.47-.27,1.71,1.71,0,0,0-.47,2.29,2,2,0,0,0,2.52.29,1.73,1.73,0,0,0,.42-2.31"/><path class="cls-9" d="M46.7,116.31a5.06,5.06,0,1,0-5.06,5.06,5.06,5.06,0,0,0,5.06-5.06"/><path class="cls-14" d="M43.1,115.3a2,2,0,0,0-2.48-.28,1.75,1.75,0,0,0-.47,2.3,2,2,0,0,0,2.53.29,1.73,1.73,0,0,0,.42-2.31"/><path class="cls-16" d="M56.81,114.7a5.06,5.06,0,1,0-5.06,5.06,5.06,5.06,0,0,0,5.06-5.06"/><path class="cls-14" d="M53.21,113.69a1.93,1.93,0,0,0-2.47-.27,1.72,1.72,0,0,0-.48,2.29,2,2,0,0,0,2.53.29,1.73,1.73,0,0,0,.42-2.31"/><line class="cls-18" x1="70.03" y1="126.17" x2="85.52" y2="126.17"/><polygon class="cls-19" points="85.07 127.69 87.7 126.17 85.07 124.65 85.07 127.69"/><text class="cls-20" transform="translate(38.65 92.58)"><tspan xml:space="preserve">Nuclease  +</tspan></text><text class="cls-20" transform="translate(30.36 154.89)">CRISPRi-<tspan x="-7.79" y="7">perturbed cells</tspan></text><text class="cls-20" transform="translate(93.9 156.58)">Edited cells</text><path class="cls-11" d="M106,135.43a5.06,5.06,0,1,0-5.06,5.06,5.05,5.05,0,0,0,5.06-5.06"/><path class="cls-10" d="M102.36,134.42a1.94,1.94,0,0,0-2.48-.28,1.72,1.72,0,0,0-.47,2.29,2,2,0,0,0,2.52.29,1.71,1.71,0,0,0,.43-2.3"/><path class="cls-11" d="M132,128.09a5.06,5.06,0,1,0-5.06,5.06,5.07,5.07,0,0,0,5.06-5.06"/><path class="cls-10" d="M128.39,127.08a1.94,1.94,0,0,0-2.48-.28,1.71,1.71,0,0,0-.47,2.29,2,2,0,0,0,2.52.29,1.72,1.72,0,0,0,.43-2.3"/><path class="cls-12" d="M121.2,132a5.06,5.06,0,1,0-5.06,5.06A5.07,5.07,0,0,0,121.2,132"/><path class="cls-10" d="M117.6,131a1.92,1.92,0,0,0-2.47-.28,1.71,1.71,0,0,0-.47,2.29,2,2,0,0,0,2.52.29,1.72,1.72,0,0,0,.42-2.3"/><path class="cls-13" d="M109.28,124.59a5.06,5.06,0,1,0-5.06,5.06,5.07,5.07,0,0,0,5.06-5.06"/><path class="cls-10" d="M105.69,123.58a1.94,1.94,0,0,0-2.48-.28,1.71,1.71,0,0,0-.47,2.29,2,2,0,0,0,2.52.3,1.74,1.74,0,0,0,.43-2.31"/><path class="cls-11" d="M116.14,140.49a5.06,5.06,0,1,0-5.06,5,5.06,5.06,0,0,0,5.06-5"/><path class="cls-10" d="M112.55,139.48a2,2,0,0,0-2.48-.29,1.72,1.72,0,0,0-.47,2.3,2,2,0,0,0,2.52.29,1.73,1.73,0,0,0,.43-2.3"/><path class="cls-13" d="M118.62,123a5.06,5.06,0,1,0-5.06,5.06,5.07,5.07,0,0,0,5.06-5.06"/><path class="cls-10" d="M115,122a1.92,1.92,0,0,0-2.47-.28,1.72,1.72,0,0,0-.47,2.3,2,2,0,0,0,2.52.29A1.73,1.73,0,0,0,115,122"/><path class="cls-13" d="M130.25,137a5.06,5.06,0,1,0-5.06,5.06,5.06,5.06,0,0,0,5.06-5.06"/><path class="cls-10" d="M126.66,136a1.94,1.94,0,0,0-2.48-.28,1.71,1.71,0,0,0-.47,2.29,2,2,0,0,0,2.52.29,1.73,1.73,0,0,0,.43-2.3"/><path class="cls-11" d="M112.61,131.54a5.06,5.06,0,1,0-5.06,5.06,5.06,5.06,0,0,0,5.06-5.06"/><path class="cls-10" d="M109,130.52a2,2,0,0,0-2.48-.27,1.71,1.71,0,0,0-.47,2.29,2,2,0,0,0,2.52.29,1.73,1.73,0,0,0,.43-2.31"/><path class="cls-12" d="M128.73,119.13a5.06,5.06,0,1,0-5.06,5.07,5.05,5.05,0,0,0,5.06-5.07"/><path class="cls-10" d="M125.14,118.12a1.94,1.94,0,0,0-2.48-.27,1.73,1.73,0,0,0-.47,2.29,2,2,0,0,0,2.53.29,1.73,1.73,0,0,0,.42-2.31"/><path class="cls-11" d="M99.16,128a5.06,5.06,0,1,0-5.06,5.06A5.06,5.06,0,0,0,99.16,128"/><path class="cls-10" d="M95.57,127a1.94,1.94,0,0,0-2.48-.28,1.72,1.72,0,0,0-.47,2.29,2,2,0,0,0,2.52.3,1.73,1.73,0,0,0,.43-2.31"/><path class="cls-12" d="M100.12,119.13a5.06,5.06,0,1,0-5.06,5.07,5.06,5.06,0,0,0,5.06-5.07"/><path class="cls-10" d="M96.53,118.12a1.94,1.94,0,0,0-2.48-.27,1.71,1.71,0,0,0-.47,2.29,2,2,0,0,0,2.52.29,1.74,1.74,0,0,0,.43-2.31"/><path class="cls-11" d="M110.24,116.31a5.06,5.06,0,1,0-5.06,5.06,5.06,5.06,0,0,0,5.06-5.06"/><path class="cls-10" d="M106.65,115.3a2,2,0,0,0-2.48-.28,1.72,1.72,0,0,0-.47,2.3,2,2,0,0,0,2.52.29,1.75,1.75,0,0,0,.43-2.31"/><path class="cls-12" d="M120.35,114.7a5.06,5.06,0,1,0-5.06,5.06,5.06,5.06,0,0,0,5.06-5.06"/><path class="cls-10" d="M116.75,113.69a1.92,1.92,0,0,0-2.47-.27,1.71,1.71,0,0,0-.47,2.29,2,2,0,0,0,2.52.29,1.73,1.73,0,0,0,.42-2.31"/><path class="cls-15" d="M106,135.43a5.06,5.06,0,1,0-5.06,5.06,5.05,5.05,0,0,0,5.06-5.06"/><path class="cls-14" d="M102.36,134.42a1.94,1.94,0,0,0-2.48-.28,1.72,1.72,0,0,0-.47,2.29,2,2,0,0,0,2.52.29,1.71,1.71,0,0,0,.43-2.3"/><path class="cls-15" d="M132,128.09a5.06,5.06,0,1,0-5.06,5.06,5.07,5.07,0,0,0,5.06-5.06"/><path class="cls-14" d="M128.39,127.08a1.94,1.94,0,0,0-2.48-.28,1.71,1.71,0,0,0-.47,2.29,2,2,0,0,0,2.52.29,1.72,1.72,0,0,0,.43-2.3"/><path class="cls-16" d="M121.2,132a5.06,5.06,0,1,0-5.06,5.06A5.07,5.07,0,0,0,121.2,132"/><path class="cls-14" d="M117.6,131a1.92,1.92,0,0,0-2.47-.28,1.71,1.71,0,0,0-.47,2.29,2,2,0,0,0,2.52.29,1.72,1.72,0,0,0,.42-2.3"/><path class="cls-17" d="M109.28,124.59a5.06,5.06,0,1,0-5.06,5.06,5.07,5.07,0,0,0,5.06-5.06"/><path class="cls-14" d="M105.69,123.58a1.94,1.94,0,0,0-2.48-.28,1.71,1.71,0,0,0-.47,2.29,2,2,0,0,0,2.52.3,1.74,1.74,0,0,0,.43-2.31"/><path class="cls-17" d="M116.14,140.49a5.06,5.06,0,1,0-5.06,5,5.06,5.06,0,0,0,5.06-5"/><path class="cls-14" d="M112.55,139.48a2,2,0,0,0-2.48-.29,1.72,1.72,0,0,0-.47,2.3,2,2,0,0,0,2.52.29,1.73,1.73,0,0,0,.43-2.3"/><path class="cls-17" d="M118.62,123a5.06,5.06,0,1,0-5.06,5.06,5.07,5.07,0,0,0,5.06-5.06"/><path class="cls-14" d="M115,122a1.92,1.92,0,0,0-2.47-.28,1.72,1.72,0,0,0-.47,2.3,2,2,0,0,0,2.52.29A1.73,1.73,0,0,0,115,122"/><path class="cls-17" d="M130.25,137a5.06,5.06,0,1,0-5.06,5.06,5.06,5.06,0,0,0,5.06-5.06"/><path class="cls-14" d="M126.66,136a1.94,1.94,0,0,0-2.48-.28,1.71,1.71,0,0,0-.47,2.29,2,2,0,0,0,2.52.29,1.73,1.73,0,0,0,.43-2.3"/><path class="cls-9" d="M112.61,131.54a5.06,5.06,0,1,0-5.06,5.06,5.06,5.06,0,0,0,5.06-5.06"/><path class="cls-14" d="M109,130.52a2,2,0,0,0-2.48-.27,1.71,1.71,0,0,0-.47,2.29,2,2,0,0,0,2.52.29,1.73,1.73,0,0,0,.43-2.31"/><path class="cls-16" d="M128.73,119.13a5.06,5.06,0,1,0-5.06,5.07,5.05,5.05,0,0,0,5.06-5.07"/><path class="cls-14" d="M125.14,118.12a1.94,1.94,0,0,0-2.48-.27,1.73,1.73,0,0,0-.47,2.29,2,2,0,0,0,2.53.29,1.73,1.73,0,0,0,.42-2.31"/><path class="cls-15" d="M99.16,128a5.06,5.06,0,1,0-5.06,5.06A5.06,5.06,0,0,0,99.16,128"/><path class="cls-14" d="M95.57,127a1.94,1.94,0,0,0-2.48-.28,1.72,1.72,0,0,0-.47,2.29,2,2,0,0,0,2.52.3,1.73,1.73,0,0,0,.43-2.31"/><path class="cls-16" d="M100.12,119.13a5.06,5.06,0,1,0-5.06,5.07,5.06,5.06,0,0,0,5.06-5.07"/><path class="cls-14" d="M96.53,118.12a1.94,1.94,0,0,0-2.48-.27,1.71,1.71,0,0,0-.47,2.29,2,2,0,0,0,2.52.29,1.74,1.74,0,0,0,.43-2.31"/><path class="cls-9" d="M110.24,116.31a5.06,5.06,0,1,0-5.06,5.06,5.06,5.06,0,0,0,5.06-5.06"/><path class="cls-14" d="M106.65,115.3a2,2,0,0,0-2.48-.28,1.72,1.72,0,0,0-.47,2.3,2,2,0,0,0,2.52.29,1.75,1.75,0,0,0,.43-2.31"/><path class="cls-16" d="M120.35,114.7a5.06,5.06,0,1,0-5.06,5.06,5.06,5.06,0,0,0,5.06-5.06"/><path class="cls-14" d="M116.75,113.69a1.92,1.92,0,0,0-2.47-.27,1.71,1.71,0,0,0-.47,2.29,2,2,0,0,0,2.52.29,1.73,1.73,0,0,0,.42-2.31"/><text class="cls-20" transform="translate(151.42 114.39)">Repair<tspan x="-4.86" y="7">outcomes</tspan><tspan x="8.56" y="14">x</tspan><tspan x="-3.69" y="21">CRISPRi</tspan><tspan x="-0.78" y="28">sgRNA</tspan><tspan x="-3.5" y="35">identities</tspan></text><text class="cls-20" transform="translate(81.14 78.99)">DNA donor<tspan x="11.09" y="7">with</tspan><tspan x="-2.53" y="14">programmed</tspan><tspan x="8.37" y="21">SNVs</tspan></text><line class="cls-18" x1="133.39" y1="126.17" x2="140.88" y2="126.17"/><polygon class="cls-19" points="140.44 127.69 143.07 126.17 140.44 124.65 140.44 127.69"/><path class="cls-18" d="M82.85,126.17h0a8.38,8.38,0,0,1-8.38-8.38V104.08"/><text class="cls-20" transform="translate(84.94 18.56)">Arbitrary editing modality</text><text class="cls-20" transform="translate(74.46 49.09)">Prime editor</text><text class="cls-20" transform="translate(89.84 38.31)">Base editor</text><text class="cls-21" transform="matrix(0.7, -0.71, 0.71, 0.7, 111.5, 28.23)">...</text></svg>